<svg xmlns="http://www.w3.org/2000/svg" viewBox="0 0 400 400" width="400" height="400">
  <rect width="400" height="400" fill="#fefdf9"/>
  <g fill="none" stroke="#dad7d0" stroke-width="0.55" stroke-linecap="round" stroke-linejoin="round">
    <!-- Row 1 -->
    <path d="M12 18h8v6H12z M14 24l-2 2v-2z"/>
    <path d="M38 12l3 6-3 6-3-6z"/>
    <path d="M62 20c0-3 2-5 5-5s5 2 5 5-2 5-5 5-5-2-5-5z"/>
    <path d="M88 14h10v2H88z M93 16v8"/>
    <circle cx="118" cy="18" r="6"/>
    <path d="M142 14l4 8-4 4-4-4z"/>
    <path d="M168 12a6 6 0 110 12 6 6 0 010-12z M165 18h6"/>
    <path d="M192 16c-2 0-4 1-4 3s2 3 4 3 4-1 4-3-2-3-4-3z"/>
    <path d="M218 14h8l-2 8h-4z"/>
    <path d="M248 12v12M242 18h12"/>
    <path d="M272 14c3 0 6 2 6 5s-3 5-6 5"/>
    <path d="M298 16l6-4v12l-6-4z"/>
    <path d="M328 14a5 5 0 110 10 5 5 0 010-10z"/>
    <path d="M352 12h12v2h-12z M358 14v8"/>
    <path d="M378 18l-3-4 3-4 3 4z"/>
    <!-- Row 2 -->
    <path d="M8 48h14v10H8z M11 58l-3 3v-3z"/>
    <path d="M42 44l8 4-8 4V44z"/>
    <path d="M68 52c-4 0-7-3-7-7h14c0 4-3 7-7 7z"/>
    <path d="M92 46h10v12H92z M97 52h4"/>
    <path d="M118 44l6 8-6 8-6-8z"/>
    <path d="M148 50a8 8 0 110-16 8 8 0 010 16z"/>
    <path d="M172 44h12v2l-4 6h-4l-4-6z"/>
    <path d="M202 48c0-2 2-4 5-4 2 0 3 1 3 2s-1 2-3 2c-3 0-5 2-5 4"/>
    <path d="M228 46l4 10h-8z"/>
    <path d="M252 44v16M246 52h12"/>
    <path d="M278 48l8-6v12l-8-6z"/>
    <path d="M308 44a6 6 0 110 12 6 6 0 010-12z M305 50h6"/>
    <path d="M332 46h10c2 0 4 2 4 4s-2 4-4 4h-6v-8z"/>
    <path d="M362 44l6 8-3 4-3-4 6-8z"/>
    <path d="M388 50h8v2h-8z"/>
    <!-- Row 3 -->
    <path d="M14 82c0-3 2-5 5-5 2 0 4 1 4 3 0 2-2 4-4 4-3 0-5-2-5-2z"/>
    <path d="M38 78h12v12H38z M44 84h4"/>
    <path d="M68 80l10 6-10 6V80z"/>
    <path d="M98 78a7 7 0 110 14 7 7 0 010-14z"/>
    <path d="M122 82h14v2H122z M129 84v6"/>
    <path d="M152 78l4 8-4 8-4-8z"/>
    <path d="M178 80c3 0 5 2 5 4s-2 4-5 4h-2v-8h2z"/>
    <path d="M208 78h10l-2 8h-6z"/>
    <path d="M232 76v16M226 84h12"/>
    <path d="M258 80l6-4v8l-6-4z"/>
    <path d="M288 78a5 5 0 110 10 5 5 0 010-10z"/>
    <path d="M312 82h8v6h-8z M314 88l-2 2v-2z"/>
    <path d="M342 78l8 4-8 4V78z"/>
    <path d="M368 80c-2 0-4-2-4-4h8c0 2-2 4-4 4z"/>
    <path d="M392 78v12M386 84h12"/>
    <!-- Row 4 -->
    <path d="M10 112h10v8H10z M12 120l-2 2v-2z"/>
    <path d="M38 108l6 10-6 6V108z"/>
    <path d="M62 114a6 6 0 110 12 6 6 0 010-12z"/>
    <path d="M88 110h12v2l-3 5h-6l-3-5z"/>
    <path d="M118 112c0-3 3-5 6-5s6 2 6 5"/>
    <path d="M148 108v16M142 116h12"/>
    <path d="M172 110l4 8-4 4-4-4z"/>
    <path d="M198 112h10c2 0 4 2 4 4s-2 4-4 4h-10v-8z"/>
    <path d="M228 110a8 8 0 110 16 8 8 0 010-16z"/>
    <path d="M252 108h14v10H252z"/>
    <path d="M282 112l8-6v12l-8-6z"/>
    <path d="M308 110c3 0 6 2 6 5s-3 5-6 5"/>
    <path d="M332 108l6 8-3 4-3-4 6-8z"/>
    <path d="M362 112h8v2h-8z M366 114v6"/>
    <path d="M388 110l-4 6 4 6 4-6z"/>
    <!-- Row 5 -->
    <path d="M16 148h8v6h-8z M18 154l-2 2v-2z"/>
    <path d="M42 142l10 6-10 6V142z"/>
    <path d="M68 148a7 7 0 110 14 7 7 0 010-14z"/>
    <path d="M92 144h12v12H92z"/>
    <path d="M122 148l4 8-4 8-4-8z"/>
    <path d="M148 146c-4 0-7-3-7-7h14c0 4-3 7-7 7z"/>
    <path d="M178 144v16M172 152h12"/>
    <path d="M202 146h10l-2 8h-6z"/>
    <path d="M232 144a6 6 0 110 12 6 6 0 010-12z"/>
    <path d="M258 148l6-4v8l-6-4z"/>
    <path d="M288 144h14v2H288z M295 146v8"/>
    <path d="M312 146l8 4-8 4V146z"/>
    <path d="M342 144c0-2 2-4 5-4 2 0 3 1 3 2"/>
    <path d="M368 142l6 10-6 6V142z"/>
    <path d="M392 148h10v2h-10z"/>
    <!-- Row 6 -->
    <path d="M8 178h12v10H8z"/>
    <path d="M38 176l3 6-3 6-3-6z"/>
    <path d="M62 182a5 5 0 110 10 5 5 0 010-10z"/>
    <path d="M88 178h10c2 0 4 2 4 4s-2 4-4 4h-6v-8h2z"/>
    <path d="M118 180l4 8-4 4-4-4z"/>
    <path d="M148 178v16M142 186h12"/>
    <path d="M172 180c3 0 5 2 5 4s-2 4-5 4"/>
    <path d="M198 178a8 8 0 110 16 8 8 0 010-16z"/>
    <path d="M228 176h14v12H228z M234 182h4"/>
    <path d="M258 180l8-6v12l-8-6z"/>
    <path d="M288 178l6 8-3 4-3-4 6-8z"/>
    <path d="M312 180h8v6h-8z"/>
    <path d="M342 178l10 6-10 6V178z"/>
    <path d="M368 180a6 6 0 110 12 6 6 0 010-12z"/>
    <path d="M388 178v12M382 184h12"/>
    <!-- Row 7 -->
    <path d="M14 212h10v8H14z M16 220l-2 2v-2z"/>
    <path d="M42 208l6 10-6 6V208z"/>
    <path d="M68 214c0-3 2-5 5-5s5 2 5 5"/>
    <path d="M92 210h12v2l-4 6h-4l-4-6z"/>
    <path d="M122 212a7 7 0 110 14 7 7 0 010-14z"/>
    <path d="M148 210l4 8-4 8-4-8z"/>
    <path d="M178 212h10l-2 8h-6z"/>
    <path d="M202 210v16M196 218h12"/>
    <path d="M232 212l8 4-8 4V212z"/>
    <path d="M258 210a5 5 0 110 10 5 5 0 010-10z"/>
    <path d="M288 212c-2 0-4-2-4-4h8c0 2-2 4-4 4z"/>
    <path d="M312 210l6 8-3 4-3-4 6-8z"/>
    <path d="M342 212h14v2H342z"/>
    <path d="M368 210l4 8-4 4-4-4z"/>
    <path d="M392 212v12M386 218h12"/>
    <!-- Row 8 -->
    <path d="M10 244h8v6h-8z M12 250l-2 2v-2z"/>
    <path d="M38 240l10 6-10 6V240z"/>
    <path d="M62 246a6 6 0 110 12 6 6 0 010-12z"/>
    <path d="M88 242h12v12H88z"/>
    <path d="M118 244l4 8-4 8-4-8z"/>
    <path d="M148 242c3 0 6 2 6 5s-3 5-6 5"/>
    <path d="M178 240v16M172 248h12"/>
    <path d="M202 244h10c2 0 4 2 4 4s-2 4-4 4h-10v-8z"/>
    <path d="M232 242a8 8 0 110 16 8 8 0 010-16z"/>
    <path d="M258 244l6-4v8l-6-4z"/>
    <path d="M288 242h14v10H288z"/>
    <path d="M312 244l8-6v12l-8-6z"/>
    <path d="M342 242l6 8-3 4-3-4 6-8z"/>
    <path d="M368 244a5 5 0 110 10 5 5 0 010-10z"/>
    <path d="M388 242h10v2h-10z M393 244v8"/>
    <!-- Row 9 -->
    <path d="M16 278h12v10H16z"/>
    <path d="M42 274l3 6-3 6-3-6z"/>
    <path d="M68 280c0-3 3-5 6-5s6 2 6 5"/>
    <path d="M92 276h10l-2 8h-6z"/>
    <path d="M122 278a7 7 0 110 14 7 7 0 010-14z"/>
    <path d="M148 276l4 8-4 8-4-8z"/>
    <path d="M178 278h8v6h-8z M180 284l-2 2v-2z"/>
    <path d="M202 276v16M196 284h12"/>
    <path d="M232 278l10 6-10 6V278z"/>
    <path d="M258 276a6 6 0 110 12 6 6 0 010-12z"/>
    <path d="M288 278l6 8-3 4-3-4 6-8z"/>
    <path d="M312 276h12v2l-3 5h-6l-3-5z"/>
    <path d="M342 278c-4 0-7-3-7-7h14c0 4-3 7-7 7z"/>
    <path d="M368 276l8 4-8 4V276z"/>
    <path d="M392 278v12M386 284h12"/>
    <!-- Row 10 -->
    <path d="M8 310h10v8H8z M10 318l-2 2v-2z"/>
    <path d="M38 306l6 10-6 6V306z"/>
    <path d="M62 312a5 5 0 110 10 5 5 0 010-10z"/>
    <path d="M88 308h12v12H88z M94 314h4"/>
    <path d="M118 310l4 8-4 4-4-4z"/>
    <path d="M148 308v16M142 316h12"/>
    <path d="M172 310c3 0 5 2 5 4s-2 4-5 4"/>
    <path d="M198 308a8 8 0 110 16 8 8 0 010-16z"/>
    <path d="M228 306h14v12H228z"/>
    <path d="M258 310l8-6v12l-8-6z"/>
    <path d="M288 308l6 8-3 4-3-4 6-8z"/>
    <path d="M312 310h10l-2 8h-6z"/>
    <path d="M342 308a6 6 0 110 12 6 6 0 010-12z"/>
    <path d="M368 310l4 8-4 8-4-8z"/>
    <path d="M388 308h10v2h-10z"/>
    <!-- Row 11 -->
    <path d="M14 344h8v6h-8z M16 350l-2 2v-2z"/>
    <path d="M42 340l10 6-10 6V340z"/>
    <path d="M68 346a7 7 0 110 14 7 7 0 010-14z"/>
    <path d="M92 342h12v2l-4 6h-4l-4-6z"/>
    <path d="M122 344l4 8-4 8-4-8z"/>
    <path d="M148 342c0-2 2-4 5-4 2 0 3 1 3 2"/>
    <path d="M178 340v16M172 348h12"/>
    <path d="M202 344h10c2 0 4 2 4 4s-2 4-4 4h-10v-8z"/>
    <path d="M232 342a8 8 0 110 16 8 8 0 010-16z"/>
    <path d="M258 344l6-4v8l-6-4z"/>
    <path d="M288 342h14v10H288z"/>
    <path d="M312 344l8 4-8 4V344z"/>
    <path d="M342 342l6 8-3 4-3-4 6-8z"/>
    <path d="M368 344a5 5 0 110 10 5 5 0 010-10z"/>
    <path d="M392 342v12M386 348h12"/>
    <!-- Row 12 -->
    <path d="M10 376h12v10H10z"/>
    <path d="M38 372l3 6-3 6-3-6z"/>
    <path d="M62 378a6 6 0 110 12 6 6 0 010-12z"/>
    <path d="M88 374h10l-2 8h-6z"/>
    <path d="M118 376l4 8-4 4-4-4z"/>
    <path d="M148 374c3 0 6 2 6 5s-3 5-6 5"/>
    <path d="M178 372v16M172 380h12"/>
    <path d="M202 376h8v6h-8z"/>
    <path d="M232 374l10 6-10 6V374z"/>
    <path d="M258 372a5 5 0 110 10 5 5 0 010-10z"/>
    <path d="M288 376l6 8-3 4-3-4 6-8z"/>
    <path d="M312 374h12v12H312z"/>
    <path d="M342 376l8-6v12l-8-6z"/>
    <path d="M368 374a7 7 0 110 14 7 7 0 010-14z"/>
    <path d="M388 376h10v2h-10z M393 378v6"/>
  </g>
</svg>
