<svg xmlns="http://www.w3.org/2000/svg" width="300" height="300" viewBox="0 0 300 300">
  <g fill="none" stroke="#b8a99a" stroke-width="1.2" opacity="0.35">
    <!-- Row 1 -->
    <circle cx="30" cy="30" r="8"/>
    <path d="M75 22h12v16H75z M81 26v8"/>
    <path d="M120 28c0-6 5-10 10-10s10 4 10 10-5 10-10 10"/>
    <path d="M170 24l8 12-8 12-8-12z"/>
    <path d="M220 26h14v14h-14z M227 20v6 M227 36v6 M220 33h14"/>
    <path d="M270 30c-4 0-8-3-8-7s4-7 8-7 8 3 8 7-4 7-8 7"/>
    <!-- Row 2 -->
    <path d="M25 80h18v12H25z M28 84h12"/>
    <path d="M70 75c6 0 10 5 10 11s-4 11-10 11"/>
    <path d="M115 78l10 6-10 6-10-6z"/>
    <circle cx="165" cy="85" r="10"/>
    <path d="M210 72v26 M197 85h26"/>
    <path d="M255 80c0-5 4-9 9-9s9 4 9 9"/>
    <!-- Row 3 -->
    <path d="M35 130h10v10H35z M40 125v5 M40 140v5"/>
    <path d="M80 125c8 0 14 6 14 14"/>
    <path d="M125 135l-8-8 8-8 8 8z"/>
    <path d="M170 128h16v16h-16z"/>
    <path d="M215 130c-6 0-10 4-10 10"/>
    <path d="M260 125h20v20h-20z M265 130h10v10"/>
    <!-- Row 4 -->
    <circle cx="40" cy="185" r="7"/>
    <path d="M85 178h14v14H85z"/>
    <path d="M130 185l12-8v16z"/>
    <path d="M175 180c0-7 6-12 12-12"/>
    <path d="M220 175v24 M208 187h24"/>
    <path d="M265 182h16v12h-16z"/>
    <!-- Row 5 -->
    <path d="M30 235c0-5 4-8 8-8"/>
    <path d="M75 228h18v18H75z"/>
    <path d="M120 240l-6-10h12z"/>
    <path d="M165 232h20v16h-20z M170 237h10"/>
    <circle cx="220" cy="240" r="9"/>
    <path d="M265 235l8 10-8 10-8-10z"/>
    <!-- Row 6 -->
    <path d="M45 275h12v8H45z"/>
    <path d="M90 270c6 0 10 4 10 10"/>
    <path d="M135 278h14v10h-14z"/>
    <path d="M180 272v20 M174 282h12"/>
    <path d="M225 275c-4 0-7-3-7-7s3-7 7-7"/>
    <path d="M270 270h16v16h-16z"/>
  </g>
</svg>
